HIERARCHY
ROOT Hips
{
	OFFSET 48.310699 1.359316 85.489700
	CHANNELS 6 Xposition Yposition Zposition Xrotation Yrotation Zrotation
	JOINT spine
	{
		OFFSET 0.000000 -0.367607 6.392601
		CHANNELS 3 Xrotation Yrotation Zrotation
		JOINT spine1
		{
			OFFSET 0.000000 -0.000001 9.176109
			CHANNELS 3 Xrotation Yrotation Zrotation
			JOINT spine2
			{
				OFFSET 0.000000 -0.000001 8.792381
				CHANNELS 3 Xrotation Yrotation Zrotation
				JOINT Neck
				{
					OFFSET 0.000000 -1.076244 22.573708
					CHANNELS 3 Xrotation Yrotation Zrotation
					JOINT Head
					{
						OFFSET 0.000000 -0.000001 6.820114
						CHANNELS 3 Xrotation Yrotation Zrotation
						End Site
						{
							OFFSET 0.000000 5.444267 16.508499
						}
					}
				}
				JOINT RightShoulder
				{
					OFFSET -3.702209 0.515506 9.495087
					CHANNELS 3 Xrotation Yrotation Zrotation
					JOINT RightArm
					{
						OFFSET 0.000000 -0.000002 12.453697
						CHANNELS 3 Xrotation Yrotation Zrotation
						JOINT RightArmRoll
						{
							OFFSET 0.000000 -0.000001 6.286865
							CHANNELS 3 Xrotation Yrotation Zrotation
							JOINT RightForeArm
							{
								OFFSET 0.000000 -0.000003 18.311401
								CHANNELS 3 Xrotation Yrotation Zrotation
								JOINT RightForeArmRoll
								{
									OFFSET 0.000000 -0.000001 7.054825
									CHANNELS 3 Xrotation Yrotation Zrotation
									JOINT RightHand
									{
										OFFSET 0.000000 -0.000002 14.157501
										CHANNELS 3 Xrotation Yrotation Zrotation
										End Site
										{
											OFFSET 0.000000 0.000000 0.100006
										}
									}
								}
							}
						}
					}
				}
				JOINT LeftShoulder
				{
					OFFSET 3.702209 0.515506 9.495087
					CHANNELS 3 Xrotation Yrotation Zrotation
					JOINT LeftArm
					{
						OFFSET 0.000000 -0.000002 12.453697
						CHANNELS 3 Xrotation Yrotation Zrotation
						JOINT LeftArmRoll
						{
							OFFSET 0.000000 -0.000001 6.286865
							CHANNELS 3 Xrotation Yrotation Zrotation
							JOINT LeftForeArm
							{
								OFFSET 0.000000 -0.000003 18.311401
								CHANNELS 3 Xrotation Yrotation Zrotation
								JOINT LeftForeArmRoll
								{
									OFFSET 0.000000 -0.000001 7.054825
									CHANNELS 3 Xrotation Yrotation Zrotation
									JOINT LeftHand
									{
										OFFSET 0.000000 -0.000002 14.157501
										CHANNELS 3 Xrotation Yrotation Zrotation
										End Site
										{
											OFFSET 0.000000 0.000000 0.100006
										}
									}
								}
							}
						}
					}
				}
			}
		}
	}
	JOINT RightUpLeg
	{
		OFFSET -5.666161 0.871610 -1.039032
		CHANNELS 3 Xrotation Yrotation Zrotation
		JOINT RightUpLegRoll
		{
			OFFSET 0.000000 -0.000003 16.600502
			CHANNELS 3 Xrotation Yrotation Zrotation
			JOINT RightLeg
			{
				OFFSET 0.000000 0.000003 -20.557198
				CHANNELS 3 Xrotation Yrotation Zrotation
				JOINT RightLegRoll
				{
					OFFSET 0.000000 -0.000003 20.624397
					CHANNELS 3 Xrotation Yrotation Zrotation
					JOINT RightFoot
					{
						OFFSET 0.000000 -0.000003 17.166405
						CHANNELS 3 Xrotation Yrotation Zrotation
						JOINT RightToeBase
						{
							OFFSET 0.000000 -0.000002 14.350204
							CHANNELS 3 Xrotation Yrotation Zrotation
							End Site
							{
								OFFSET 0.006081 0.801060 6.949707
							}
						}
					}
				}
			}
		}
	}
	JOINT LeftUpLeg
	{
		OFFSET 5.666161 0.871610 -1.039032
		CHANNELS 3 Xrotation Yrotation Zrotation
		JOINT LeftUpLegRoll
		{
			OFFSET 0.000000 -0.000003 16.600601
			CHANNELS 3 Xrotation Yrotation Zrotation
			JOINT LeftLeg
			{
				OFFSET 0.000000 -0.000003 20.557098
				CHANNELS 3 Xrotation Yrotation Zrotation
				JOINT LeftLegRoll
				{
					OFFSET 0.000000 -0.000003 20.815094
					CHANNELS 3 Xrotation Yrotation Zrotation
					JOINT LeftFoot
					{
						OFFSET 0.000000 -0.000003 16.975708
						CHANNELS 3 Xrotation Yrotation Zrotation
						JOINT LeftToeBase
						{
							OFFSET 0.000000 -0.000002 14.350204
							CHANNELS 3 Xrotation Yrotation Zrotation
							End Site
							{
								OFFSET -0.027260 0.801059 6.949707
							}
						}
					}
				}
			}
		}
	}
}
MOTION
Frames: 8
Frame Time: 0.041667
44.222397 -0.729257 85.641792 -3.454078 2.413343 -1.797147 -1.179472 -0.425326 -0.046382 1.642828 -0.843151 -0.091066 3.287968 -0.844123 -0.080884 6.040799 3.866387 0.991971 4.968063 -2.441374 0.706373 2.764667 -55.837712 3.711021 -33.233569 -116.150317 -28.434229 -0.000000 0.000001 -0.000004 9.921809 -14.220835 0.832051 0.000001 -0.000001 -3.002900 -5.000181 -7.998744 0.000163 -6.033466 54.325559 6.694212 -39.858064 117.091886 40.320967 -0.000003 0.000014 0.000004 8.913182 12.856965 -0.473673 -0.000002 -0.000012 3.000021 -5.000188 7.998704 -0.000150 2.777431 -175.766954 1.062503 -179.999991 0.000005 -1.171004 175.353195 -3.174546 -0.474899 0.000003 0.000000 0.039813 69.104104 6.925087 2.038888 25.456976 -7.347728 0.000143 3.647964 172.648768 -1.918704 -0.000005 -0.000004 -1.147090 -8.674249 1.550370 0.633850 -0.000000 0.000004 -0.220309 72.988132 -6.672871 -2.436379 25.456955 7.355623 -0.000095 
44.222298 -0.725939 85.644890 -3.458239 2.412954 -1.794956 -1.179331 -0.425272 -0.046377 1.642259 -0.843755 -0.091077 3.287409 -0.844734 -0.080896 6.041556 3.874158 0.996299 4.978067 -2.442603 0.709896 2.770055 -55.835782 3.717721 -33.244228 -116.158705 -28.473932 0.000001 0.000001 -0.000004 9.949189 -14.232126 0.837497 -0.000001 -0.000000 -3.002901 -5.000182 -7.998743 0.000164 -6.048745 54.325303 6.712733 -39.857682 117.094127 40.326444 -0.000005 0.000014 0.000004 8.922893 12.860496 -0.474454 -0.000004 -0.000013 3.000020 -5.000189 7.998704 -0.000151 2.780474 -175.765971 1.065605 -179.999991 0.000005 -1.171004 175.351761 -3.177536 -0.475222 0.000002 0.000001 0.039813 69.103462 6.925052 2.038924 25.456971 -7.347727 0.000143 3.650553 172.647798 -1.920198 -0.000005 -0.000004 -1.147090 -8.673431 1.551096 0.633851 0.000000 0.000004 -0.220311 72.985510 -6.673054 -2.437664 25.456955 7.355622 -0.000094 
44.226894 -0.731179 85.644798 -3.462330 2.412553 -1.792806 -1.179182 -0.425192 -0.046380 1.641669 -0.844366 -0.091093 3.286819 -0.845353 -0.080914 6.042133 3.881901 1.000601 4.988128 -2.443930 0.713409 2.775182 -55.833959 3.724087 -33.253947 -116.167980 -28.512278 -0.000000 -0.000000 -0.000004 9.976490 -14.243323 0.842928 0.000001 -0.000001 -3.002901 -5.000180 -7.998744 0.000164 -6.064757 54.324992 6.732141 -39.857111 117.096326 40.332390 -0.000004 0.000014 0.000004 8.933089 12.864300 -0.475278 -0.000003 -0.000012 3.000020 -5.000189 7.998706 -0.000152 2.783414 -175.764987 1.068837 -179.999991 0.000005 -1.171004 175.350299 -3.180524 -0.475546 0.000003 0.000001 0.039813 69.102731 6.925087 2.038873 25.456976 -7.347728 0.000144 3.653122 172.646815 -1.921690 -0.000005 -0.000004 -1.147090 -8.672505 1.551820 0.633851 0.000001 0.000004 -0.220316 72.982784 -6.673244 -2.438955 25.456952 7.355624 -0.000094 
44.222897 -0.728208 85.643784 -3.466386 2.412134 -1.790681 -1.179020 -0.425093 -0.046389 1.641069 -0.844982 -0.091111 3.286209 -0.845975 -0.080935 6.042580 3.889625 1.004885 4.998238 -2.445328 0.716916 2.780172 -55.832456 3.730248 -33.264777 -116.176436 -28.551620 0.000001 0.000001 -0.000004 10.003745 -14.254507 0.848348 0.000003 -0.000001 -3.002901 -5.000180 -7.998744 0.000164 -6.081286 54.324562 6.752153 -39.855465 117.099345 40.337519 -0.000002 0.000015 0.000004 8.943637 12.868490 -0.476174 -0.000003 -0.000012 3.000020 -5.000190 7.998704 -0.000152 2.786300 -175.763006 1.072210 -179.999991 0.000005 -1.171004 175.348769 -3.184493 -0.474957 0.000002 0.000001 0.039814 69.101994 6.925082 2.038819 25.456976 -7.347729 0.000143 3.655672 172.645831 -1.923190 -0.000005 -0.000004 -1.147090 -8.671507 1.552546 0.633851 0.000001 0.000004 -0.220321 72.980134 -6.673370 -2.440332 25.456952 7.355622 -0.000094 
44.222397 -0.720851 85.645401 -3.470408 2.411704 -1.788587 -1.178852 -0.424984 -0.046402 1.640449 -0.845599 -0.091133 3.285600 -0.846600 -0.080958 6.042957 3.897341 1.009165 5.008344 -2.446764 0.720418 2.785053 -55.830940 3.736278 -33.274493 -116.185698 -28.589621 -0.000000 0.000000 -0.000004 10.030965 -14.265495 0.853747 0.000002 -0.000001 -3.002900 -5.000180 -7.998744 0.000164 -6.098106 54.324015 6.772516 -39.854895 117.101531 40.344155 -0.000005 0.000015 0.000004 8.954375 12.872770 -0.477067 -0.000004 -0.000012 3.000021 -5.000193 7.998706 -0.000150 2.789140 -175.762009 1.075588 -179.999991 0.000004 -1.171004 175.347239 -3.187481 -0.475285 0.000003 0.000001 0.039814 69.101249 6.925080 2.038866 25.456979 -7.347729 0.000143 3.658219 172.644861 -1.924689 -0.000005 -0.000005 -1.147090 -8.670468 1.553272 0.633851 0.000001 0.000004 -0.220327 72.977402 -6.673533 -2.441717 25.456953 7.355623 -0.000094 
44.218491 -0.721575 85.646210 -3.474422 2.411276 -1.786494 -1.178679 -0.424872 -0.046416 1.639829 -0.846217 -0.091154 3.284981 -0.847227 -0.080982 6.043324 3.905055 1.013435 5.018475 -2.448210 0.723922 2.789898 -55.829434 3.742258 -33.285114 -116.194099 -28.628644 -0.000000 0.000000 -0.000004 10.058182 -14.276576 0.859173 0.000000 -0.000001 -3.002900 -5.000182 -7.998744 0.000164 -6.114992 54.323452 6.792960 -39.853266 117.104550 40.349612 -0.000002 0.000015 0.000004 8.965169 12.877147 -0.477994 -0.000002 -0.000012 3.000021 -5.000190 7.998706 -0.000151 2.791988 -175.760015 1.079027 -179.999991 0.000004 -1.171004 175.345682 -3.191464 -0.474685 0.000002 0.000001 0.039813 69.100512 6.925076 2.038911 25.456974 -7.347729 0.000144 3.660770 172.643878 -1.926178 -0.000005 -0.000004 -1.147090 -8.669422 1.554008 0.633852 -0.000000 0.000004 -0.220333 72.974670 -6.673724 -2.442911 25.456955 7.355623 -0.000094 
44.229492 -0.734984 85.648399 -3.478453 2.410856 -1.784389 -1.178511 -0.424766 -0.046428 1.639209 -0.846835 -0.091175 3.284361 -0.847852 -0.081006 6.043721 3.912770 1.017722 5.028587 -2.449637 0.727428 2.794814 -55.827917 3.748326 -33.294816 -116.203374 -28.666649 0.000001 -0.000001 -0.000003 10.085430 -14.287654 0.864605 -0.000000 -0.000001 -3.002900 -5.000179 -7.998744 0.000164 -6.131725 54.322909 6.813221 -39.852699 117.106749 40.356169 -0.000003 0.000015 0.000004 8.975860 12.881429 -0.478900 -0.000002 -0.000013 3.000020 -5.000192 7.998706 -0.000151 2.794838 -175.759045 1.082390 -179.999991 0.000005 -1.171004 175.344152 -3.194453 -0.475014 0.000003 0.000001 0.039814 69.099774 6.925072 2.038858 25.456974 -7.347731 0.000144 3.663308 172.642908 -1.927677 -0.000005 -0.000005 -1.147090 -8.668394 1.554734 0.633851 0.000001 0.000004 -0.220339 72.971938 -6.673886 -2.444298 25.456952 7.355624 -0.000094 
44.232098 -0.729985 85.644493 -3.482514 2.410437 -1.782263 -1.178351 -0.424672 -0.046435 1.638609 -0.847449 -0.091193 3.283761 -0.848474 -0.081026 6.044208 3.920503 1.022012 5.038674 -2.451013 0.730938 2.799830 -55.826309 3.754535 -33.305628 -116.211817 -28.706066 0.000000 -0.000001 -0.000003 10.112707 -14.298822 0.870074 -0.000002 -0.000001 -3.002900 -5.000179 -7.998744 0.000163 -6.148116 54.322468 6.833071 -39.852286 117.109003 40.362576 -0.000005 0.000014 0.000004 8.986313 12.885519 -0.479775 -0.000000 -0.000013 3.000020 -5.000190 7.998704 -0.000151 2.797732 -175.757037 1.085738 -179.999991 0.000005 -1.171003 175.342636 -3.198421 -0.475422 0.000003 0.000001 0.039813 69.099029 6.925069 2.038902 25.456972 -7.347728 0.000144 3.665867 172.641924 -1.929168 -0.000005 -0.000005 -1.147090 -8.667418 1.555459 0.633852 0.000000 0.000004 -0.220344 72.969206 -6.674074 -2.445589 25.456955 7.355622 -0.000095 
